# xmcd CD database file
#
# Track frame offsets:
#	150
#	14077
#	29365
#	39517
#	48177
#	56567
#	79057
#	100925
#	120422
#	134420
#	150122
#	167725
#	176582
#
# Disc length: 2596 seconds
#
# Revision: 1
# Processed by: cddbd v1.5.2PL0 Copyright (c) Steve Scherf et al.
# Submitted via: CDex 1.76
#
DISCID=9c0a220d
DTITLE=Various Artist - ragtime
DYEAR=0000
DGENRE=Jazz
TTITLE0=Joplin - Heliotrope Bouquet 1969 - Duncan Swift
TTITLE1=Joplin - Original Rags 1969 - Duncan Swift
TTITLE2=Foxley - Professor Foxley's Manipulations 1978 - Ray Foxley
TTITLE3=Bradford - Red Light Rag 1976 - Geoff Bradford
TTITLE4=Bradford - 44 Rag 1976 - Geoff Bradford
TTITLE5=Tyer - Panama Rag 1977 - Alan Elsdon
TTITLE6=Daniels - Hiawatha Rag 1977 - Rod Mason
TTITLE7=Joplin - The Entertainer 1973 - Alex Welsh
TTITLE8=Joplin - Maple Leaf Rag 1973 - Alex Welsh
TTITLE9=Morton - The Pearls 1986 - Rod Mason
TTITLE10=LaRocca - Tiger Rag 1975 - Dave Shepherd
TTITLE11=Scott - Climax Rag 1969 - Duncan Swift
TTITLE12=Johnson - Carolina Rag 1969 - Duncan Swift
EXTD=YEAR: 0000
EXTT0=
EXTT1=
EXTT2=
EXTT3=
EXTT4=
EXTT5=
EXTT6=
EXTT7=
EXTT8=
EXTT9=
EXTT10=
EXTT11=
EXTT12=
PLAYORDER=
